<svg width="20" height="16" viewBox="0 0 20 16" fill="none" xmlns="http://www.w3.org/2000/svg">
<path d="M6.53846 0.5L6.29769 0.812308L5.38462 2.03846H4.61538V1.26923H1.53846V2.03846H0V15.8846H20V2.03846H14.6154L13.7015 0.812308L13.4615 0.5H6.53846ZM7.30769 2.03846H12.6923L13.6062 3.26462L13.8462 3.57692H18.4615V6.65385H13.99C13.1885 5.28154 11.6977 4.34615 10 4.34615C8.30308 4.34615 6.81154 5.28154 6.00923 6.65385H1.53846V3.57692H6.15385L6.39462 3.26462L7.30769 2.03846ZM15.3846 4.34615V5.88462H16.9231V4.34615H15.3846ZM10 5.88462C11.7077 5.88462 13.0769 7.25385 13.0769 8.96154C13.0769 10.6692 11.7077 12.0385 10 12.0385C8.29231 12.0385 6.92308 10.6692 6.92308 8.96154C6.92308 7.25385 8.29231 5.88462 10 5.88462ZM1.53846 8.19231H5.45692C5.41174 8.4463 5.38755 8.70358 5.38462 8.96154C5.38462 11.5015 7.46 13.5769 10 13.5769C12.54 13.5769 14.6154 11.5015 14.6154 8.96154C14.6154 8.70231 14.5846 8.44 14.5431 8.19231H18.4615V14.3462H1.53846V8.19231Z" fill="white"/>
</svg>
