<svg width="15" height="15" viewBox="0 0 15 15" fill="none" xmlns="http://www.w3.org/2000/svg">
<path d="M13.5 8.498H8.5V13.498C8.5 13.7632 8.39464 14.0176 8.20711 14.2051C8.01957 14.3926 7.76522 14.498 7.5 14.498C7.23478 14.498 6.98043 14.3926 6.79289 14.2051C6.60536 14.0176 6.5 13.7632 6.5 13.498V8.498H1.5C1.23478 8.498 0.98043 8.39264 0.792893 8.20511C0.605357 8.01757 0.5 7.76322 0.5 7.498C0.5 7.23278 0.605357 6.97843 0.792893 6.79089C0.98043 6.60336 1.23478 6.498 1.5 6.498H6.5V1.498C6.5 1.23278 6.60536 0.97843 6.79289 0.790894C6.98043 0.603358 7.23478 0.498001 7.5 0.498001C7.76522 0.498001 8.01957 0.603358 8.20711 0.790894C8.39464 0.97843 8.5 1.23278 8.5 1.498V6.498H13.5C13.7652 6.498 14.0196 6.60336 14.2071 6.79089C14.3946 6.97843 14.5 7.23278 14.5 7.498C14.5 7.76322 14.3946 8.01757 14.2071 8.20511C14.0196 8.39264 13.7652 8.498 13.5 8.498Z" fill="#12C2E9"/>
</svg>
